<svg xmlns="http://www.w3.org/2000/svg" viewBox="0 0 64 64">
  <rect width="64" height="64" rx="12" fill="#efe6d0"/>
  <g transform="translate(30 34) scale(0.42)">
    <path d="M-28,0 C -52,-4 -70,-10 -84,-16 C -70,-6 -66,0 -66,2 C -66,4 -70,10 -84,16 C -70,10 -52,4 -28,2 Z" fill="#3a6ea5"/>
    <ellipse cx="0" cy="0" rx="34" ry="20" fill="#3a6ea5"/>
    <path d="M-18,6 C -6,20 26,18 40,6 C 30,16 -6,20 -18,10 Z" fill="#f6f1e4"/>
    <circle cx="30" cy="-7" r="16" fill="#3a6ea5"/>
    <path d="M44,-7 L60,-4 L44,0 Z" fill="#201d18"/>
    <circle cx="35" cy="-10" r="3.1" fill="#12100c"/>
    <path d="M4,-8 C -10,-40 -46,-52 -78,-40 C -52,-26 -30,-12 -6,-6 Z" fill="#2b5a80"/>
  </g>
</svg>
